<svg xmlns="http://www.w3.org/2000/svg" xmlns:xlink="http://www.w3.org/1999/xlink" xmlns:sketch="http://www.bohemiancoding.com/sketch/ns" width="32px" height="32px" viewBox="0 0 32 32" version="1.1">
    <title>block_view</title>
    <description>Created with Sketch (http://www.bohemiancoding.com/sketch)</description>
    <defs/>
    <g id="Editor" stroke="none" stroke-width="1" fill="none" fill-rule="evenodd" sketch:type="MSPage">
        <path d="M1.00684547,0 C0.450780073,0 0,0.449948758 0,1.00684547 L0,12.9931545 C0,13.5492199 0.449948758,14 1.00684547,14 L12.9931545,14 C13.5492199,14 14,13.5500512 14,12.9931545 L14,1.00684547 C14,0.450780073 13.5500512,0 12.9931545,0 L1.00684547,0 Z M19.0068455,0 C18.4507801,0 18,0.449948758 18,1.00684547 L18,12.9931545 C18,13.5492199 18.4499488,14 19.0068455,14 L30.9931545,14 C31.5492199,14 32,13.5500512 32,12.9931545 L32,1.00684547 C32,0.450780073 31.5500512,0 30.9931545,0 L19.0068455,0 Z M1.00684547,18 C0.450780073,18 0,18.4499488 0,19.0068455 L0,30.9931545 C0,31.5492199 0.449948758,32 1.00684547,32 L12.9931545,32 C13.5492199,32 14,31.5500512 14,30.9931545 L14,19.0068455 C14,18.4507801 13.5500512,18 12.9931545,18 L1.00684547,18 Z M19.0068455,18 C18.4507801,18 18,18.4499488 18,19.0068455 L18,30.9931545 C18,31.5492199 18.4499488,32 19.0068455,32 L30.9931545,32 C31.5492199,32 32,31.5500512 32,30.9931545 L32,19.0068455 C32,18.4507801 31.5500512,18 30.9931545,18 L19.0068455,18 Z M2,2 L2,12 L12,12 L12,2 L2,2 Z M20,2 L20,12 L30,12 L30,2 L20,2 Z M2,20 L2,30 L12,30 L12,20 L2,20 Z M20,20 L20,30 L30,30 L30,20 L20,20 Z M20,20" id="block_view" fill="#000000" sketch:type="MSShapeGroup"/>
    </g>
</svg>