<?xml version="1.0" encoding="utf-8"?>
<!-- Generator: Adobe Illustrator 16.0.0, SVG Export Plug-In . SVG Version: 6.00 Build 0)  -->
<!DOCTYPE svg PUBLIC "-//W3C//DTD SVG 1.1//EN" "http://www.w3.org/Graphics/SVG/1.1/DTD/svg11.dtd">
<svg version="1.1" id="Your_Icon" xmlns="http://www.w3.org/2000/svg" xmlns:xlink="http://www.w3.org/1999/xlink" x="0px" y="0px"
	 width="100px" height="100px" viewBox="0 0 100 100" enable-background="new 0 0 100 100" xml:space="preserve">
<path fill="#3A3939" d="M55.46,83c-0.001,0-0.001,0-0.002,0c-0.86,0-1.744-0.007-2.644-0.014c-1.842-0.014-3.788-0.014-5.627,0
	C46.287,82.993,45.405,83,44.543,83c-7.572,0-19.015,0-19.015-13.764c0-7.344,3.21-14.111,8.741-18.727
	c-3.029-3.64-4.714-8.237-4.714-13.064C29.555,26.172,38.727,17,50,17c11.273,0,20.445,9.172,20.445,20.446
	c0,4.825-1.686,9.421-4.715,13.063c5.531,4.614,8.74,11.384,8.74,18.728c0,5.746-2.084,9.715-6.193,11.797
	C64.695,82.848,59.98,83,55.46,83z M50,76.973c0.971,0,1.925,0.008,2.861,0.014C53.745,76.993,54.611,77,55.458,77
	c0.001,0,0.002,0,0.002,0c3.63,0,7.704-0.102,10.104-1.318c1.438-0.729,2.906-2.062,2.906-6.445c0-6.492-3.33-12.393-8.91-15.779
	c-0.828-0.504-1.362-1.378-1.435-2.346c-0.069-0.968,0.331-1.91,1.078-2.529c3.331-2.76,5.241-6.818,5.241-11.135
	C64.445,29.48,57.966,23,50,23c-7.965,0-14.445,6.48-14.445,14.446c0,4.319,1.91,8.378,5.241,11.134
	c0.748,0.619,1.15,1.561,1.08,2.529c-0.071,0.969-0.605,1.843-1.435,2.347c-5.58,3.389-8.912,9.288-8.912,15.78
	c0,6.312,2.433,7.764,13.015,7.764c0.847,0,1.713-0.007,2.598-0.014C48.076,76.979,49.031,76.973,50,76.973z"/>
</svg>
