<?xml version="1.0" encoding="utf-8"?>
<!-- Generator: Adobe Illustrator 16.0.0, SVG Export Plug-In . SVG Version: 6.00 Build 0)  -->
<!DOCTYPE svg PUBLIC "-//W3C//DTD SVG 1.1//EN" "http://www.w3.org/Graphics/SVG/1.1/DTD/svg11.dtd">
<svg version="1.1" id="Layer_1" xmlns="http://www.w3.org/2000/svg" xmlns:xlink="http://www.w3.org/1999/xlink" x="0px" y="0px"
	 width="100px" height="100px" viewBox="0 0 100 100" enable-background="new 0 0 100 100" xml:space="preserve">
<rect fill="#F04F22" width="100" height="100"/>
<path fill="#F7F7F7" d="M89,44H59V14c0-4.4-3.15-8-7-8c-3.85,0-7,3.6-7,8v30H15c-4.4,0-8,3.15-8,7c0,3.85,3.6,7,8,7h30v30
	c0,4.4,3.15,8,7,8c3.85,0,7-3.6,7-8V58h30c4.4,0,8-3.15,8-7C97,47.15,93.4,44,89,44z"/>
</svg>
