<?xml version="1.0" encoding="utf-8"?>
<!-- Generator: Adobe Illustrator 16.0.0, SVG Export Plug-In . SVG Version: 6.00 Build 0)  -->
<!DOCTYPE svg PUBLIC "-//W3C//DTD SVG 1.1//EN" "http://www.w3.org/Graphics/SVG/1.1/DTD/svg11.dtd">
<svg version="1.1" id="Layer_1" xmlns="http://www.w3.org/2000/svg" xmlns:xlink="http://www.w3.org/1999/xlink" x="0px" y="0px"
	 width="100px" height="100px" viewBox="0 0 100 100" enable-background="new 0 0 100 100" xml:space="preserve">
<g id="Captions">
</g>
<g id="Your_Icon">
	<g>
		<g>
			<path fill="#3A3939" d="M18.531,36.838c-7.111,0-12.876,5.76-12.876,12.869c0,7.105,5.765,12.872,12.876,12.872
				c7.102,0,12.871-5.767,12.871-12.872C31.402,42.598,25.633,36.838,18.531,36.838z"/>
		</g>
		<g>
			<path fill="#3A3939" d="M50.324,36.838c-7.105,0-12.867,5.76-12.867,12.869c0,7.105,5.762,12.872,12.867,12.872
				c7.107,0,12.871-5.767,12.871-12.872C63.195,42.598,57.434,36.838,50.324,36.838z"/>
		</g>
		<g>
			<path fill="#3A3939" d="M82.124,36.838c-7.103,0-12.871,5.76-12.871,12.869c0,7.105,5.769,12.872,12.871,12.872
				C89.23,62.579,95,56.812,95,49.707C95,42.598,89.23,36.838,82.124,36.838z"/>
		</g>
	</g>
</g>
</svg>
