<svg xmlns="http://www.w3.org/2000/svg" xmlns:xlink="http://www.w3.org/1999/xlink" version="1.1" id="Layer_1" x="0px" y="0px" width="50px" height="50px" viewBox="0 0 50 50" enable-background="new 0 0 50 50" xml:space="preserve">
<g id="book_1_">
	<path fill="#000000" d="M1.868,7.848v29.688l22.779,5.614c0.114,0.031,0.225,0.043,0.333,0.043c0.109,0,0.223-0.012,0.332-0.043   l22.821-5.613V7.848l-23.148,5.411L1.868,7.848z M4.648,11.354l18.943,4.435v24.239l-18.943-4.67V11.354z M45.353,35.357   l-18.981,4.671V15.79l18.981-4.435V35.357z"/>
	<path fill="#000000" d="M7.971,18.936l11.677,2.643c0.104,0.022,0.206,0.033,0.304,0.033c0.638,0,1.212-0.435,1.354-1.083   c0.174-0.749-0.295-1.493-1.049-1.662L8.584,16.224c-0.759-0.172-1.493,0.298-1.665,1.048C6.751,18.024,7.222,18.768,7.971,18.936z   "/>
	<path fill="#000000" d="M20.265,24.879L8.592,22.238c-0.756-0.169-1.498,0.298-1.667,1.047c-0.172,0.75,0.298,1.493,1.049,1.664   l11.675,2.643c0.105,0.021,0.207,0.031,0.309,0.031c0.634,0,1.21-0.437,1.351-1.084C21.483,25.794,21.013,25.05,20.265,24.879z"/>
	<path fill="#000000" d="M20.26,30.724L8.584,28.082c-0.756-0.163-1.49,0.303-1.66,1.049c-0.172,0.751,0.298,1.492,1.047,1.663   l11.677,2.641c0.104,0.024,0.206,0.035,0.304,0.035c0.638,0,1.212-0.438,1.354-1.087C21.48,31.639,21.012,30.895,20.26,30.724z"/>
	<path fill="#000000" d="M30.8,21.695c0.101,0,0.204-0.011,0.306-0.032l11.679-2.642c0.749-0.172,1.216-0.915,1.046-1.664   c-0.168-0.749-0.905-1.222-1.664-1.046l-11.675,2.639c-0.751,0.171-1.217,0.915-1.049,1.664   C29.59,21.258,30.164,21.695,30.8,21.695z"/>
	<path fill="#000000" d="M30.798,27.711c0.1,0,0.204-0.012,0.307-0.033l11.672-2.643c0.754-0.17,1.22-0.915,1.049-1.662   c-0.167-0.75-0.91-1.221-1.66-1.047l-11.677,2.639c-0.749,0.172-1.218,0.917-1.048,1.665   C29.585,27.271,30.162,27.711,30.798,27.711z"/>
	<path fill="#000000" d="M42.17,28.166L30.495,30.81c-0.75,0.167-1.219,0.914-1.049,1.66c0.146,0.646,0.722,1.084,1.354,1.084   c0.101,0,0.204-0.011,0.306-0.032l11.679-2.643c0.749-0.167,1.216-0.914,1.046-1.664C43.666,28.467,42.925,27.994,42.17,28.166z"/>
</g>
</svg>