<svg xmlns="http://www.w3.org/2000/svg" xmlns:xlink="http://www.w3.org/1999/xlink" xml:space="preserve" width="100px" height="100px" style="shape-rendering:geometricPrecision; text-rendering:geometricPrecision; image-rendering:optimizeQuality; fill-rule:evenodd; clip-rule:evenodd" viewBox="0 0 100 100">
 <defs>
  <style type="text/css">
   
    .fil0 {fill:black}
   
  </style>
 </defs>
 <g id="Layer_x0020_1">
  <metadata id="CorelCorpID_0Corel-Layer"/>
  <path class="fil0" d="M16.6076 13.6229l58.9233 -10.4835 0 12.8859 7.86266 0 0 80.8353 -66.7871 0 0.00118111 -83.2377zm52.8807 12.2706l-0.167718 62.7773c-0.00590556,2.5264 -6.12406,2.46734 -6.15005,-0.05315l-0.0295278 -22.4919 -4.7587 -5.06815 0.07441 -28.2593c0.323625,-5.34925 4.99846,-7.6725 11.0316,-6.90478zm-38.4109 -0.0862212l4.37366 -0.0129922 0.112206 14.8891 2.96813 -0.0165356 -0.113387 -14.882 3.2894 -0.00944889 0.112206 14.8785 2.96813 -0.0177167 -0.112206 -14.8714 4.69728 -0.0141733 0.0755911 18.2907 -5.75319 5.19807 0.00118111 0.131103 -6.63312 0.0437011 0 -0.126379 -5.91028 -5.02563 -0.0755911 -18.4549zm12.971 28.5829l-0.00944889 34.4483c0.154726,2.10356 -6.93194,2.38821 -6.95911,0.0885834l-0.0377956 -34.5463 7.00635 0.00944889zm-22.7045 -39.5306l52.0882 -8.79928 0 10.0276 -52.0882 0 0 -1.22836z"/>
 </g>
</svg>