<?xml version="1.0" encoding="utf-8"?>
<!-- Generator: Adobe Illustrator 16.0.0, SVG Export Plug-In . SVG Version: 6.00 Build 0)  -->
<!DOCTYPE svg PUBLIC "-//W3C//DTD SVG 1.1//EN" "http://www.w3.org/Graphics/SVG/1.1/DTD/svg11.dtd">
<svg version="1.1" id="Layer_1" xmlns="http://www.w3.org/2000/svg" xmlns:xlink="http://www.w3.org/1999/xlink" x="0px" y="0px"
	 width="100px" height="100px" viewBox="0 0 100 100" enable-background="new 0 0 100 100" xml:space="preserve">
<g id="Captions" display="none">
</g>
<g id="Your_Icon">
	<g>
		<path d="M92.014,47.005L77.3,32.29V18.95c0-3.03-2.466-5.496-5.499-5.496h-5.636c-2.081,0-3.897,1.164-4.828,2.876L50.791,5.784
			c-1.046-1.046-2.741-1.046-3.787,0L5.783,47.005c-0.766,0.766-0.994,1.919-0.578,2.918c0.413,1.001,1.39,1.653,2.472,1.653h10.722
			V82.42c0,6.88,5.598,12.48,12.479,12.48h36.757c6.881,0,12.484-5.602,12.484-12.48V51.576H90.12c1.084,0,2.06-0.652,2.478-1.653
			C93.009,48.924,92.777,47.771,92.014,47.005z M67.634,89.545H30.877c-3.93,0-7.123-3.195-7.123-7.125V50.297
			c0.265-0.457,0.59-0.875,0.98-1.25h49.043c0.391,0.375,0.715,0.793,0.984,1.25V82.42C74.764,86.35,71.564,89.545,67.634,89.545z
			 M77.438,46.221c-0.011,0-0.026,0.009-0.039,0.009H21.119c-0.017,0-0.027-0.009-0.044-0.009h-6.933l34.756-34.757L61.453,24.02
			c0.771,0.768,1.927,0.996,2.917,0.581c1.002-0.416,1.657-1.393,1.657-2.475l0.138-3.316l5.778,0.141v14.448
			c0,0.71,0.281,1.39,0.781,1.894l10.933,10.929L77.438,46.221L77.438,46.221z"/>
	</g>
	<g>
		<path d="M55.255,55.727H43.262c-2.835,0-5.136,2.305-5.136,5.137v11.992c0,2.832,2.301,5.137,5.136,5.137h11.993
			c2.829,0,5.136-2.305,5.136-5.137V60.861C60.391,58.03,58.084,55.727,55.255,55.727z M56.113,72.855
			c0,0.477-0.385,0.86-0.858,0.86H43.262c-0.479,0-0.864-0.385-0.864-0.86V60.861c0-0.477,0.385-0.86,0.864-0.86h11.993
			c0.474,0,0.858,0.385,0.858,0.86V72.855z"/>
	</g>
</g>
</svg>
