<svg xmlns="http://www.w3.org/2000/svg" xmlns:xlink="http://www.w3.org/1999/xlink" version="1.1" id="Layer_1" x="0px" y="0px" width="75px" height="75px" viewBox="0 0 75 75" enable-background="new 0 0 75 75" xml:space="preserve">
<path d="M37.5,9.709c-9.524,0-17.245,7.721-17.245,17.245c0,1.828,0.287,3.588,0.813,5.241h-0.001l0.005,0.01  c0.539,1.688,1.333,3.262,2.333,4.68l14.166,28.407l14.048-28.442c1.008-1.435,1.806-3.028,2.341-4.738l0.001-0.001  c0.509-1.628,0.784-3.36,0.784-5.156C54.745,17.43,47.024,9.709,37.5,9.709z M37.5,35.373c-4.785,0-8.664-3.878-8.664-8.663  s3.879-8.664,8.664-8.664c4.784,0,8.664,3.879,8.664,8.664S42.284,35.373,37.5,35.373z"/>
</svg>