<svg xmlns="http://www.w3.org/2000/svg" xmlns:xlink="http://www.w3.org/1999/xlink" version="1.1" id="Your_Icon" x="0px" y="0px" width="100px" height="100px" viewBox="0 0 100 100" enable-background="new 0 0 100 100" xml:space="preserve">
<g>
	<path d="M66.849,54.835c-3.459-3.336-7.521-5.843-11.932-7.419c5.168-4.216,8.565-11.215,8.565-19.126   C63.482,15.448,54.538,5,43.558,5c-10.99,0-19.924,10.448-19.924,23.291c0,7.92,3.397,14.92,8.575,19.126   C19.255,52.072,9.963,64.495,9.963,79.036c0,1.688,1.371,3.07,3.07,3.07h34.086c1.699,0,3.07-1.381,3.07-3.07   c0-1.699-1.371-3.07-3.07-3.07H16.277c1.525-13.702,13.18-24.385,27.281-24.385c7.132,0,13.896,2.722,19.034,7.675   c1.228,1.177,3.162,1.136,4.339-0.082C68.107,57.956,68.077,56.012,66.849,54.835z M29.774,28.291   c0-9.455,6.181-17.151,13.784-17.151c7.593,0,13.784,7.695,13.784,17.151s-6.191,17.151-13.784,17.151   C35.955,45.441,29.774,37.746,29.774,28.291z"/>
</g>
<g>
	<path d="M90.037,79.036c0,1.688-1.371,3.07-3.07,3.07h-9.824v9.824c0,1.688-1.371,3.07-3.07,3.07c-1.688,0-3.07-1.382-3.07-3.07   v-9.824H61.18c-1.688,0-3.07-1.381-3.07-3.07c0-1.699,1.382-3.07,3.07-3.07h9.824v-9.824c0-1.699,1.381-3.07,3.07-3.07   c1.699,0,3.07,1.371,3.07,3.07v9.824h9.824C88.666,75.966,90.037,77.338,90.037,79.036z"/>
</g>
</svg>